<svg width="48" height="48" viewBox="0 0 48 48" fill="none" xmlns="http://www.w3.org/2000/svg">
<circle cx="24" cy="24" r="24" fill="black" fill-opacity="0.01"/>
<path fill-rule="evenodd" clip-rule="evenodd" d="M16 20C15.45 20 15 19.55 15 19C15 18.45 15.45 18 16 18H32C32.55 18 33 18.45 33 19C33 19.55 32.55 20 32 20H16ZM16 25H32C32.55 25 33 24.55 33 24C33 23.45 32.55 23 32 23H16C15.45 23 15 23.45 15 24C15 24.55 15.45 25 16 25ZM16 30H32C32.55 30 33 29.55 33 29C33 28.45 32.55 28 32 28H16C15.45 28 15 28.45 15 29C15 29.55 15.45 30 16 30Z" fill="white"/>
<mask id="mask0_1014_60" style="mask-type:alpha" maskUnits="userSpaceOnUse" x="15" y="18" width="18" height="12">
<path fill-rule="evenodd" clip-rule="evenodd" d="M16 20C15.45 20 15 19.55 15 19C15 18.45 15.45 18 16 18H32C32.55 18 33 18.45 33 19C33 19.55 32.55 20 32 20H16ZM16 25H32C32.55 25 33 24.55 33 24C33 23.45 32.55 23 32 23H16C15.45 23 15 23.45 15 24C15 24.55 15.45 25 16 25ZM16 30H32C32.55 30 33 29.55 33 29C33 28.45 32.55 28 32 28H16C15.45 28 15 28.45 15 29C15 29.55 15.45 30 16 30Z" fill="white"/>
</mask>
<g mask="url(#mask0_1014_60)">
<rect x="12" y="12" width="101" height="101" fill="white"/>
</g>
</svg>
